<svg height="512" viewBox="0 0 64 64" width="512" xmlns="http://www.w3.org/2000/svg"><path d="m42 36h4v2h-4z"/><path d="m11 48h2v2h-2z"/><path d="m25 48h2v2h-2z"/><path d="m48 48h2v2h-2z"/><path d="m61.31 31.574-4.863-9a3 3 0 0 0 -2.64-1.574h-14.807a1 1 0 0 0 -1 1v20h-2v-18a2.993 2.993 0 0 0 -2.675-2.967l-18.878-10.9a3 3 0 0 0 -4.4 3.374 2.972 2.972 0 0 0 .95 1.5v7.993h-4.997a1 1 0 0 0 -1 1v12a1 1 0 0 0 1 1h12a1 1 0 0 0 1-1v-12a1 1 0 0 0 -1-1h-5v-6.773l17 9.814v10.959a1 1 0 0 0 -.707.293l-1.707 1.707h-24.586a1 1 0 0 0 -1 1v8a2 2 0 0 0 2 2h2.09a5.993 5.993 0 0 0 11.82 0h2.18a5.993 5.993 0 0 0 11.82 0h11.18a5.993 5.993 0 0 0 11.82 0h4.09a3 3 0 0 0 3-3v-12.892a4.959 4.959 0 0 0 -.69-2.534zm-50.31-6.574h2v4h-2zm-2 0v2h-2v-2zm-2 10v-6h2v1a1 1 0 0 0 1 1h4a1 1 0 0 0 1-1v-1h2v6zm10-8h-2v-2h2zm37.687-3.475 4.58 8.475h-15.267v-9h9.807a1 1 0 0 1 .88.525zm-16.687 20.475v4h-2v-4zm-25.918-31.768a1 1 0 0 1 1.365-.366l17.4 10.048a2.984 2.984 0 0 0 -.825 1.832l-17.575-10.146a1 1 0 0 1 -.365-1.368zm19.918 11.768a1 1 0 0 1 2 0v13h-2zm-20 29a4 4 0 1 1 4-4 4 4 0 0 1 -4 4zm14 0a4 4 0 1 1 4-4 4 4 0 0 1 -4 4zm0-10a6.006 6.006 0 0 0 -5.91 5h-2.18a5.993 5.993 0 0 0 -11.82 0h-2.09v-7h24a1 1 0 0 0 .707-.293l1.707-1.707h3.586v9h-2.09a6.006 6.006 0 0 0 -5.91-5zm23 10a4 4 0 1 1 4-4 4 4 0 0 1 -4 4zm10-5h-4.09a5.993 5.993 0 0 0 -11.82 0h-3.09v-25h2v10a1 1 0 0 0 1 1h16.985c0 .036.015.071.015.108v1.892h-4a2 2 0 0 0 -2 2v2a2 2 0 0 0 2 2h4v2h-3v2h3v1a1 1 0 0 1 -1 1zm1-10v2h-4v-2z"/></svg>