<?xml version="1.0"?>
<svg xmlns="http://www.w3.org/2000/svg" viewBox="0 0 64 64" width="512" height="512"><g id="Truck"><path d="M46,44H44a1,1,0,0,1,0-2h2a1,1,0,0,1,0,2Z"/><path d="M49,52a3,3,0,1,0,3,3A3,3,0,0,0,49,52Zm0,4a1,1,0,1,1,1-1A1,1,0,0,1,49,56Z"/><path d="M15,52a3,3,0,1,0,3,3A3,3,0,0,0,15,52Zm0,4a1,1,0,1,1,1-1A1,1,0,0,1,15,56Z"/><path d="M61,52H60V39A11.013,11.013,0,0,0,49,28H39a1,1,0,0,0-1,1V46H33.733l3.241-13.771A1.982,1.982,0,0,0,37,32V26h5a5.006,5.006,0,0,0,5-5,1,1,0,0,0-1-1H32a1,1,0,0,0-1,1v6H3a1,1,0,0,0-1,1v4a1,1,0,0,0,1,1h.208L7.026,49.229A1,1,0,0,0,8,50h2.138a7.037,7.037,0,0,0-1.453,2H5a1,1,0,0,0-1,1v2a3,3,0,0,0,3,3H8.685a6.985,6.985,0,0,0,12.63,0h21.37a6.985,6.985,0,0,0,12.63,0H59a3,3,0,0,0,3-3V53A1,1,0,0,0,61,52ZM8.08,56H7a1,1,0,0,1-1-1V54H8.08a6.29,6.29,0,0,0,0,2ZM44,30h5a9.011,9.011,0,0,1,8.941,8H56V36a1,1,0,0,0-2,0v2H45a1,1,0,0,1-1-1ZM38,48v4H29V49a1,1,0,0,1,1-1ZM4,29H32a1,1,0,0,0,1-1V22H44.829A3.006,3.006,0,0,1,42,24H36a1,1,0,0,0-1,1v6H4Zm24,4v5.5a.5.5,0,0,1-1,0V33Zm-7,0v8.5a.5.5,0,0,1-1,0V33Zm-7,0v5.5a.5.5,0,0,1-1,0V33ZM8.792,48,5.263,33H11v5.5a2.5,2.5,0,0,0,5,0V33h2v8.5a2.5,2.5,0,0,0,5,0V33h2v5.5a2.5,2.5,0,0,0,5,0V33h4.737L31.678,46H30a3,3,0,0,0-2.816,2Zm11.1,2H27v2H21.315A7.033,7.033,0,0,0,19.89,50ZM15,60a5,5,0,1,1,5-5A5.006,5.006,0,0,1,15,60Zm6.92-4a6.29,6.29,0,0,0,0-2H42.08a6.29,6.29,0,0,0,0,2ZM49,60a5,5,0,1,1,5-5A5.006,5.006,0,0,1,49,60Zm0-12a7,7,0,0,0-6.315,4H40V30h2v7a3,3,0,0,0,3,3H58v2H55a3,3,0,0,0,0,6h3v4H55.315A7,7,0,0,0,49,48Zm9-4v2H55a1,1,0,0,1,0-2Zm2,11a1,1,0,0,1-1,1H55.92a6.29,6.29,0,0,0,0-2H60Z"/></g></svg>
